HIERARCHY
ROOT root
{
	OFFSET	0	13.1	24.9
	CHANNELS 6  Xposition Yposition Zposition Xrotation Yrotation Zrotation
	JOINT spine_1
	{
		OFFSET	0	9.99999	0
		CHANNELS 3  Xrotation Yrotation Zrotation
		JOINT spine_2
		{
			OFFSET	0	112	-10
			CHANNELS 3  Xrotation Yrotation Zrotation
			JOINT spine_3
			{
				OFFSET	0	206.5	19.3
				CHANNELS 3  Xrotation Yrotation Zrotation
				JOINT spine_4
				{
					OFFSET	0	110.4	14.6
					CHANNELS 3  Xrotation Yrotation Zrotation
					JOINT neck_1
					{
						OFFSET	0	71.8	-50.3
						CHANNELS 3  Xrotation Yrotation Zrotation
						JOINT neck_2
						{
							OFFSET	0	86.2	-25.8
							CHANNELS 3  Xrotation Yrotation Zrotation
							JOINT head_ee
							{
								OFFSET	0	179.8	-8.7
								CHANNELS 3  Xrotation Yrotation Zrotation
								End Site
								{
									OFFSET	1	0	0
								}
							}
						}
					}
					JOINT left_clavicle
					{
						OFFSET	-43.2	22.4	-70.8
						CHANNELS 3  Xrotation Yrotation Zrotation
						JOINT left_shoulder
						{
							OFFSET	-93.9	-5.79999	48.7
							CHANNELS 3  Xrotation Yrotation Zrotation
							JOINT left_elbow
							{
								OFFSET	-291.4	-30.8	15.2
								CHANNELS 3  Xrotation Yrotation Zrotation
								JOINT left_lowarm_twist
								{
									OFFSET	-110.7	-3.89999	13.6
									CHANNELS 3  Xrotation Yrotation Zrotation
									JOINT left_hand
									{
										OFFSET	-110.7	-3.89999	13.6
										CHANNELS 3  Xrotation Yrotation Zrotation
										JOINT left_ee
										{
											OFFSET	-80.8	-5.10001	12.1
											CHANNELS 3  Xrotation Yrotation Zrotation
											End Site
											{
												OFFSET	1	0	0
											}
										}
									}
								}
							}
						}
					}
					JOINT right_clavicle
					{
						OFFSET	43.2	22.4	-70.8
						CHANNELS 3  Xrotation Yrotation Zrotation
						JOINT right_shoulder
						{
							OFFSET	93.9	-5.79999	48.7
							CHANNELS 3  Xrotation Yrotation Zrotation
							JOINT right_elbow
							{
								OFFSET	291.4	-30.8	15.2
								CHANNELS 3  Xrotation Yrotation Zrotation
								JOINT right_lowarm_twist
								{
									OFFSET	110.7	-3.89999	13.6
									CHANNELS 3  Xrotation Yrotation Zrotation
									JOINT right_hand
									{
										OFFSET	110.7	-3.89999	13.6
										CHANNELS 3  Xrotation Yrotation Zrotation
										JOINT right_ee
										{
											OFFSET	80.8	-5.10001	12.1
											CHANNELS 3  Xrotation Yrotation Zrotation
											End Site
											{
												OFFSET	1	0	0
											}
										}
									}
								}
							}
						}
					}
				}
			}
		}
	}
	JOINT left_hip
	{
		OFFSET	-82.8	-127.5	0.300001
		CHANNELS 3  Xrotation Yrotation Zrotation
		JOINT left_knee
		{
			OFFSET	-28.2	-396.7	2.2
			CHANNELS 3  Xrotation Yrotation Zrotation
			JOINT left_ankle
			{
				OFFSET	-11.7	-411.3	35.4
				CHANNELS 3  Xrotation Yrotation Zrotation
				JOINT left_toes
				{
					OFFSET	0	-60	-88.6
					CHANNELS 3  Xrotation Yrotation Zrotation
					JOINT left_foot_ee
					{
						OFFSET	-22.5	-16.5	-42.2
						CHANNELS 3  Xrotation Yrotation Zrotation
						End Site
						{
							OFFSET	1	0	0
						}
					}
				}
			}
		}
	}
	JOINT right_hip
	{
		OFFSET	82.8	-127.5	0.300001
		CHANNELS 3  Xrotation Yrotation Zrotation
		JOINT right_knee
		{
			OFFSET	28.2	-396.7	2.2
			CHANNELS 3  Xrotation Yrotation Zrotation
			JOINT right_ankle
			{
				OFFSET	11.7	-411.3	35.4
				CHANNELS 3  Xrotation Yrotation Zrotation
				JOINT right_toes
				{
					OFFSET	0	-60	-88.6
					CHANNELS 3  Xrotation Yrotation Zrotation
					JOINT right_foot_ee
					{
						OFFSET	22.5	-16.5	-42.2
						CHANNELS 3  Xrotation Yrotation Zrotation
						End Site
						{
							OFFSET	1	0	0
						}
					}
				}
			}
		}
	}
}
MOTION
Frames: 9
Frame Time: 0.02
2525.07940176 751.949 -1495.69481721 75.4824494362 78.4728144605 -73.5577391454 -2.7507 -0.208147 -1.46799 -2.74951 -0.114324 -1.47825 -2.74506 0.269107 -1.45805 -2.74803 0.0354848 -1.48224 -10.0485 10.1377 6.80202 -9.99354 14.5131 9.14075 -0.0 0.0 -0.0 6.0435 10.4939 11.6691 -21.9957 -15.3557 71.7703 0.20624 -5.83355 0.0105082 -48.927 -3.94657 4.62561 -1.16301 19.0933 0.742105 -0.0 0.0 -0.0 2.84863 18.5308 -3.94149 11.5655 18.8806 -69.8237 1.39308 34.6073 -0.434012 20.4049 -0.262103 2.57962 -0.0890683 -12.8734 -4.73554 0.0 0.0 0.0 -1.15949 8.931 -9.37096 -43.7286 -0.720857 6.5122 38.7109 14.8366 -4.81288 -33.7359 0.0 0.0 -0.0 0.0 -0.0 2.56194 22.0561 -9.75421 -11.2805 -0.297642 -1.7028 24.2137 15.5403 3.49889 -24.5581 0.0 0.0 0.0 0.0 0.0 
2520.19573818 749.814 -1489.80469538 79.4299759573 78.3404389245 -77.3852999506 -2.82376 -0.116584 -1.44624 -2.8226 -0.0243296 -1.45073 -2.82063 0.350896 -1.40787 -2.82337 0.12417 -1.44561 -9.78199 10.428 7.02333 -9.71672 14.8617 9.39633 -0.0 0.0 -0.0 5.90602 10.9098 11.4194 -23.3276 -14.8333 71.5713 0.227508 -6.43031 0.0127801 -48.8414 -3.93663 4.62094 -1.12251 19.0337 0.958201 -0.0 0.0 -0.0 2.88383 19.0247 -3.96943 13.4736 19.2221 -69.1718 1.56746 37.8257 -0.537083 20.5106 -0.261054 2.59308 -0.0202995 -12.0148 -4.82587 0.0 0.0 0.0 0.748415 9.16458 -10.6748 -42.2846 -0.618476 6.31511 39.5109 14.8585 -4.88642 -33.5339 0.0 0.0 -0.0 0.0 -0.0 1.66307 21.4203 -10.0569 -10.1323 -0.282753 -1.52726 23.5441 15.2068 3.40727 -24.6516 0.0 0.0 0.0 0.0 0.0 
2511.75111581 749.981 -1479.08846669 83.7430364247 77.8533818971 -81.8154557854 -2.93861 0.0406987 -1.45564 -2.93744 0.133233 -1.4501 -2.93964 0.50584 -1.36555 -2.94213 0.283852 -1.42828 -11.4274 10.2584 7.46971 -11.3732 14.5549 9.97269 -0.0 0.0 -0.0 5.74433 11.8445 11.1201 -24.3204 -14.731 72.3411 0.267895 -7.55959 0.0176988 -48.6584 -3.9154 4.6109 -0.965135 18.9567 1.86732 -0.0 0.0 -0.0 2.78612 18.937 -3.76817 14.4431 19.6422 -68.8397 1.69388 39.9965 -0.616501 20.3606 -0.262535 2.57397 0.0160416 -10.4899 -4.44361 0.0 0.0 0.0 2.53754 9.03257 -11.7869 -35.407 -0.200712 5.34467 38.9382 15.1008 -4.83767 -34.076 0.0 0.0 -0.0 0.0 -0.0 -0.0884243 19.7713 -9.38327 -12.2456 -0.307434 -1.85057 23.8991 14.2333 3.4287 -24.8089 0.0 0.0 0.0 0.0 0.0 
2512.35320615 752.788 -1476.62046764 78.5348668333 79.4786520198 -75.9465863586 -2.8132 0.0641244 -1.568 -2.81184 0.163758 -1.56074 -2.81502 0.560931 -1.46566 -2.81787 0.322447 -1.53583 -9.98257 10.8664 7.02302 -9.9302 15.7288 9.52952 -0.0 0.0 -0.0 5.32681 12.3095 10.3976 -24.3449 -14.796 73.9184 0.301367 -8.49109 0.0223719 -47.7917 -3.81527 4.56245 -0.655672 19.3711 3.89527 -0.0 0.0 -0.0 2.71806 18.0533 -3.70768 15.3795 19.9236 -68.3096 2.08756 45.9552 -0.885233 20.0599 -0.265352 2.53567 0.215884 -6.80646 -4.24682 0.0 0.0 0.0 3.438 9.10323 -11.9404 -25.689 0.184904 3.90497 33.8148 19.4686 -4.4075 -35.0613 0.0 0.0 -0.0 0.0 -0.0 -0.240286 21.2494 -9.67562 -4.99664 -0.173237 -0.747026 21.8001 12.622 3.13174 -25.0094 0.0 0.0 0.0 0.0 0.0 
2446.93152663 759.212 -1492.17775043 25.573089324 76.872107385 -19.6777931248 -1.6141 -0.354667 -2.78828 -1.60979 -0.176594 -2.80518 -1.59713 0.494559 -2.76692 -1.60781 0.0515496 -2.81026 -9.60994 14.7652 13.2963 -9.22286 18.7171 16.4491 -0.0 0.0 -0.0 4.68292 21.8263 9.21088 -18.5995 -17.9624 70.6017 0.533908 -14.8147 0.0694126 -49.437 -4.00596 4.65313 1.75509 16.9714 17.9361 -0.0 0.0 -0.0 2.28843 13.6191 -3.21801 5.68693 22.1322 -67.8969 2.2686 48.3294 -1.01798 25.888 -0.175038 3.27433 1.20651 -0.559285 -8.31143 0.0 0.0 0.0 2.86994 11.0166 -12.7273 -15.5524 0.322088 2.35763 22.0412 27.5262 -3.183 -39.0908 0.0 0.0 -0.0 0.0 -0.0 0.515068 16.6719 -10.7229 -2.72534 -0.102579 -0.405633 24.548 3.70148 3.33267 -24.1647 0.0 0.0 0.0 0.0 0.0 
2446.80717781 759.212 -1489.60631102 26.366078903 77.2462097166 -20.4914430452 -1.6141 -0.354667 -2.78828 -1.60979 -0.176594 -2.80518 -1.59713 0.494559 -2.76692 -1.60781 0.0515496 -2.81026 -9.60994 14.7652 13.2963 -9.22286 18.7171 16.4491 -0.0 0.0 -0.0 4.68292 21.8263 9.21088 -18.5995 -17.9624 70.6017 0.533908 -14.8147 0.0694126 -49.437 -4.00596 4.65313 1.75509 16.9714 17.9361 -0.0 0.0 -0.0 2.28843 13.6191 -3.21801 5.68693 22.1322 -67.8969 2.2686 48.3294 -1.01798 25.888 -0.175038 3.27433 1.20651 -0.559285 -8.31143 0.0 0.0 0.0 2.86994 11.0166 -12.7273 -15.5524 0.322088 2.35763 22.0412 27.5262 -3.183 -39.0908 0.0 0.0 -0.0 0.0 -0.0 0.515068 16.6719 -10.7229 -2.72534 -0.102579 -0.405633 24.548 3.70148 3.33267 -24.1647 0.0 0.0 0.0 0.0 0.0 
2446.71384819 759.212 -1487.35962354 27.097986572 77.570817873 -21.2413839862 -1.6141 -0.354667 -2.78828 -1.60979 -0.176594 -2.80518 -1.59713 0.494559 -2.76692 -1.60781 0.0515496 -2.81026 -9.60994 14.7652 13.2963 -9.22286 18.7171 16.4491 -0.0 0.0 -0.0 4.68292 21.8263 9.21088 -18.5995 -17.9624 70.6017 0.533908 -14.8147 0.0694126 -49.437 -4.00596 4.65313 1.75509 16.9714 17.9361 -0.0 0.0 -0.0 2.28843 13.6191 -3.21801 5.68693 22.1322 -67.8969 2.2686 48.3294 -1.01798 25.888 -0.175038 3.27433 1.20651 -0.559285 -8.31143 0.0 0.0 0.0 2.86994 11.0166 -12.7273 -15.5524 0.322088 2.35763 22.0412 27.5262 -3.183 -39.0908 0.0 0.0 -0.0 0.0 -0.0 0.515068 16.6719 -10.7229 -2.72534 -0.102579 -0.405633 24.548 3.70148 3.33267 -24.1647 0.0 0.0 0.0 0.0 0.0 
2446.57485814 759.212 -1483.05389636 28.6128806107 78.1864948255 -22.7907961076 -1.6141 -0.354667 -2.78828 -1.60979 -0.176594 -2.80518 -1.59713 0.494559 -2.76692 -1.60781 0.0515496 -2.81026 -9.60994 14.7652 13.2963 -9.22286 18.7171 16.4491 -0.0 0.0 -0.0 4.68292 21.8263 9.21088 -18.5995 -17.9624 70.6017 0.533908 -14.8147 0.0694126 -49.437 -4.00596 4.65313 1.75509 16.9714 17.9361 -0.0 0.0 -0.0 2.28843 13.6191 -3.21801 5.68693 22.1322 -67.8969 2.2686 48.3294 -1.01798 25.888 -0.175038 3.27433 1.20651 -0.559285 -8.31143 0.0 0.0 0.0 2.86994 11.0166 -12.7273 -15.5524 0.322088 2.35763 22.0412 27.5262 -3.183 -39.0908 0.0 0.0 -0.0 0.0 -0.0 0.515068 16.6719 -10.7229 -2.72534 -0.102579 -0.405633 24.548 3.70148 3.33267 -24.1647 0.0 0.0 0.0 0.0 0.0 
2446.53630005 759.212 -1481.44215456 29.2213558829 78.4145899116 -23.4121793333 -1.6141 -0.354667 -2.78828 -1.60979 -0.176594 -2.80518 -1.59713 0.494559 -2.76692 -1.60781 0.0515496 -2.81026 -9.60994 14.7652 13.2963 -9.22286 18.7171 16.4491 -0.0 0.0 -0.0 4.68292 21.8263 9.21088 -18.5995 -17.9624 70.6017 0.533908 -14.8147 0.0694126 -49.437 -4.00596 4.65313 1.75509 16.9714 17.9361 -0.0 0.0 -0.0 2.28843 13.6191 -3.21801 5.68693 22.1322 -67.8969 2.2686 48.3294 -1.01798 25.888 -0.175038 3.27433 1.20651 -0.559285 -8.31143 0.0 0.0 0.0 2.86994 11.0166 -12.7273 -15.5524 0.322088 2.35763 22.0412 27.5262 -3.183 -39.0908 0.0 0.0 -0.0 0.0 -0.0 0.515068 16.6719 -10.7229 -2.72534 -0.102579 -0.405633 24.548 3.70148 3.33267 -24.1647 0.0 0.0 0.0 0.0 0.0 
